# xmcd
#
# Track frame offsets: 
#        150
#        22475
#        46773
#        66975
#        92585
#        105713
#        139510
#        167565
#        195885
#        211423
#
# Disc length: 3084 seconds
#
# Revision: 4
# Processed by: cddbd v1.5.2PL0 Copyright (c) Steve Scherf et al.
# Submitted via: ExactAudioCopy v1.0b3
#
DISCID=840c0a0a
DTITLE=Maurice John Vaughn - Generic Blues Album
DYEAR=1984
DGENRE=Blues
TTITLE0=I Done Told Ya
TTITLE1=Garbage Man Blues
TTITLE2=Girl Don't Live Here
TTITLE3=Generic Blues
TTITLE4=Wolf Bite
TTITLE5=I Got Money
TTITLE6=Computer Took My Job
TTITLE7=Keep On Sleeping
TTITLE8=Without That Bread
TTITLE9=Nothing Left To Believe In
EXTD=
EXTT0=
EXTT1=
EXTT2=
EXTT3=
EXTT4=
EXTT5=
EXTT6=
EXTT7=
EXTT8=
EXTT9=
PLAYORDER=
